<svg xmlns="http://www.w3.org/2000/svg" viewBox="0 0 64 64">
  <rect width="64" height="64" rx="14" fill="#0a1929"/>
  <circle cx="32" cy="32" r="24" fill="none" stroke="#e87722" stroke-width="3"/>
  <path
    d="M20 32c0-6.6 5.4-12 12-12 4.2 0 7.9 2.1 10.1 5.3M44 32c0 6.6-5.4 12-12 12-4.2 0-7.9-2.1-10.1-5.3"
    fill="none"
    stroke="#f5b041"
    stroke-width="3.5"
    stroke-linecap="round"
  />
  <path
    d="M26 24c3.5-2.2 7.7-3.4 12-3.4 6.1 0 11.5 3 14.8 7.6M38 40c-3.5 2.2-7.7 3.4-12 3.4-6.1 0-11.5-3-14.8-7.6"
    fill="none"
    stroke="#e87722"
    stroke-width="2.5"
    stroke-linecap="round"
  />
</svg>
